<svg width="193" height="229" viewBox="0 0 193 229" fill="none" xmlns="http://www.w3.org/2000/svg">
<g id="Group 3">
<path id="Vector" d="M32.2197 53.8946L52.0044 42.3747L40.9609 23.0736H144.822L92.9084 113.886L81.8648 94.5512L62.0803 106.105L92.9084 160L184.392 0H1.3916L32.2197 53.8946Z" fill="#F7F7F7"/>
<g id="Decoran">
<path id="Vector_2" d="M171.993 205.72C171.073 205.72 170.613 205.24 170.613 204.28V183.52C171.773 183 173.293 182.54 175.173 182.14C177.093 181.74 179.293 181.54 181.773 181.54C184.093 181.54 185.973 181.7 187.413 182.02C188.853 182.34 189.953 182.82 190.713 183.46C191.473 184.1 191.973 184.94 192.213 185.98C192.493 186.98 192.633 188.2 192.633 189.64V203.92C192.633 204.36 192.573 204.72 192.453 205C192.373 205.28 192.193 205.48 191.913 205.6C191.673 205.68 191.293 205.72 190.773 205.72H188.433V188.8C188.433 187.2 187.913 186.02 186.873 185.26C185.833 184.5 184.133 184.12 181.773 184.12C181.013 184.12 180.173 184.18 179.253 184.3C178.373 184.42 177.533 184.6 176.733 184.84C175.933 185.04 175.273 185.32 174.753 185.68V205.72H171.993Z" fill="#F7F7F7"/>
<path id="Vector_3" d="M151.809 206.14C149.449 206.14 147.529 206.02 146.049 205.78C144.569 205.54 143.429 205.14 142.629 204.58C141.869 203.98 141.329 203.2 141.009 202.24C140.729 201.28 140.589 200.1 140.589 198.7C140.589 196.66 140.829 195.1 141.309 194.02C141.789 192.94 142.629 192.2 143.829 191.8C145.029 191.4 146.629 191.2 148.629 191.2C149.629 191.2 150.709 191.24 151.869 191.32C153.069 191.36 154.209 191.42 155.289 191.5C156.409 191.54 157.369 191.6 158.169 191.68C159.009 191.76 159.569 191.86 159.849 191.98C159.849 190.14 159.689 188.68 159.369 187.6C159.049 186.52 158.549 185.72 157.869 185.2C157.229 184.68 156.409 184.34 155.409 184.18C154.449 184.02 153.329 183.94 152.049 183.94C150.729 183.94 149.389 184 148.029 184.12C146.709 184.2 145.489 184.36 144.369 184.6C143.249 184.8 142.389 185.08 141.789 185.44V184.54C141.789 183.7 142.029 183.12 142.509 182.8C143.029 182.44 143.609 182.2 144.249 182.08C145.009 181.88 146.109 181.72 147.549 181.6C149.029 181.48 150.569 181.44 152.169 181.48C154.209 181.48 155.949 181.58 157.389 181.78C158.869 181.98 160.089 182.42 161.049 183.1C162.009 183.74 162.729 184.72 163.209 186.04C163.689 187.36 163.929 189.16 163.929 191.44V203.8C163.689 204.6 162.629 205.2 160.749 205.6C158.869 205.96 155.889 206.14 151.809 206.14ZM151.809 204.1C153.649 204.1 155.109 204.04 156.189 203.92C157.309 203.8 158.149 203.64 158.709 203.44C159.309 203.24 159.689 202.98 159.849 202.66V193.72C159.489 193.6 158.809 193.48 157.809 193.36C156.849 193.24 155.829 193.14 154.749 193.06C153.669 192.94 152.749 192.88 151.989 192.88C150.269 192.88 148.869 192.98 147.789 193.18C146.749 193.38 145.989 193.88 145.509 194.68C145.069 195.48 144.849 196.72 144.849 198.4C144.849 199.72 145.009 200.8 145.329 201.64C145.649 202.48 146.289 203.1 147.249 203.5C148.249 203.9 149.769 204.1 151.809 204.1Z" fill="#F7F7F7"/>
<path id="Vector_4" d="M122.371 205.72H119.731C119.211 205.72 118.811 205.6 118.531 205.36C118.291 205.08 118.171 204.58 118.171 203.86V182.98C119.051 182.7 120.251 182.4 121.771 182.08C123.331 181.76 125.251 181.6 127.531 181.6C129.691 181.6 131.391 181.76 132.631 182.08C133.911 182.36 134.831 182.76 135.391 183.28C135.991 183.8 136.371 184.44 136.531 185.2C136.731 185.92 136.831 186.74 136.831 187.66H132.811L132.751 186.82C132.711 185.9 132.411 185.24 131.851 184.84C131.291 184.4 130.631 184.14 129.871 184.06C129.111 183.94 128.351 183.88 127.591 183.88C126.431 183.88 125.391 183.98 124.471 184.18C123.591 184.38 122.891 184.64 122.371 184.96V205.72Z" fill="#F7F7F7"/>
<path id="Vector_5" d="M100.032 206.08C98.1916 206.08 96.5316 205.94 95.0516 205.66C93.6116 205.38 92.3516 204.82 91.2716 203.98C90.2316 203.14 89.4316 201.9 88.8716 200.26C88.3116 198.62 88.0316 196.46 88.0316 193.78C88.0316 191.1 88.3116 188.94 88.8716 187.3C89.4316 185.66 90.2316 184.42 91.2716 183.58C92.3516 182.74 93.6116 182.18 95.0516 181.9C96.5316 181.62 98.1916 181.48 100.032 181.48C101.832 181.48 103.452 181.62 104.892 181.9C106.372 182.18 107.632 182.74 108.672 183.58C109.712 184.42 110.512 185.66 111.072 187.3C111.632 188.94 111.912 191.1 111.912 193.78C111.912 196.5 111.632 198.68 111.072 200.32C110.512 201.96 109.712 203.2 108.672 204.04C107.632 204.84 106.372 205.38 104.892 205.66C103.452 205.94 101.832 206.08 100.032 206.08ZM100.032 203.74C101.632 203.74 102.992 203.5 104.112 203.02C105.272 202.54 106.152 201.6 106.752 200.2C107.352 198.8 107.652 196.66 107.652 193.78C107.652 190.9 107.352 188.76 106.752 187.36C106.152 185.96 105.272 185.02 104.112 184.54C102.992 184.06 101.632 183.82 100.032 183.82C98.4316 183.82 97.0516 184.06 95.8916 184.54C94.7716 185.02 93.8916 185.96 93.2516 187.36C92.6516 188.76 92.3516 190.9 92.3516 193.78C92.3516 196.66 92.6516 198.8 93.2516 200.2C93.8916 201.6 94.7716 202.54 95.8916 203.02C97.0516 203.5 98.4316 203.74 100.032 203.74Z" fill="#F7F7F7"/>
<path id="Vector_6" d="M74.9774 206.08C71.8574 206.08 69.3374 205.76 67.4174 205.12C65.4974 204.48 64.0974 203.3 63.2174 201.58C62.3774 199.82 61.9574 197.26 61.9574 193.9C61.9574 190.5 62.3774 187.9 63.2174 186.1C64.0974 184.3 65.4974 183.08 67.4174 182.44C69.3374 181.76 71.8574 181.42 74.9774 181.42C76.0174 181.42 76.9774 181.46 77.8574 181.54C78.7774 181.62 79.8174 181.76 80.9774 181.96C81.6174 182.04 82.1374 182.2 82.5374 182.44C82.9374 182.64 83.2174 182.94 83.3774 183.34C83.5374 183.7 83.6174 184.24 83.6174 184.96C83.1774 184.72 82.4774 184.52 81.5174 184.36C80.5974 184.2 79.6174 184.08 78.5774 184C77.5374 183.88 76.6174 183.82 75.8174 183.82C73.4174 183.82 71.5174 184.14 70.1174 184.78C68.7174 185.38 67.7174 186.4 67.1174 187.84C66.5574 189.24 66.2774 191.18 66.2774 193.66C66.2774 196.14 66.5574 198.12 67.1174 199.6C67.6774 201.04 68.6574 202.06 70.0574 202.66C71.4574 203.26 73.3774 203.56 75.8174 203.56C76.9374 203.56 77.9974 203.52 78.9974 203.44C79.9974 203.32 80.8974 203.18 81.6974 203.02C82.5374 202.82 83.1774 202.6 83.6174 202.36V203.68C83.6174 204.28 83.2374 204.76 82.4774 205.12C81.7574 205.44 80.7574 205.68 79.4774 205.84C78.1974 206 76.6974 206.08 74.9774 206.08Z" fill="#F7F7F7"/>
<path id="Vector_7" d="M46.3668 206.08C44.0468 206.08 42.0868 205.92 40.4868 205.6C38.9268 205.28 37.6668 204.68 36.7068 203.8C35.7868 202.92 35.1068 201.7 34.6668 200.14C34.2668 198.54 34.0668 196.48 34.0668 193.96C34.0668 191.08 34.4268 188.72 35.1468 186.88C35.8668 185.04 37.1468 183.68 38.9868 182.8C40.8268 181.92 43.4068 181.48 46.7268 181.48C49.2868 181.48 51.3268 181.82 52.8468 182.5C54.4068 183.18 55.5268 184.22 56.2068 185.62C56.9268 187.02 57.2868 188.84 57.2868 191.08V194.5H40.3668C40.3668 194.02 40.4868 193.62 40.7268 193.3C40.9668 192.94 41.4068 192.76 42.0468 192.76H53.5068L53.4468 191.02C53.4068 188.54 52.8668 186.74 51.8268 185.62C50.8268 184.5 49.0668 183.94 46.5468 183.94C44.4268 183.94 42.7668 184.26 41.5668 184.9C40.3668 185.54 39.5268 186.58 39.0468 188.02C38.5668 189.46 38.3268 191.42 38.3268 193.9C38.3268 196.54 38.5868 198.56 39.1068 199.96C39.6668 201.32 40.5868 202.26 41.8668 202.78C43.1468 203.26 44.8868 203.5 47.0868 203.5C47.8468 203.5 48.7068 203.48 49.6668 203.44C50.6668 203.36 51.6668 203.28 52.6668 203.2C53.6668 203.12 54.5468 203.02 55.3068 202.9C56.1068 202.74 56.6668 202.58 56.9868 202.42V203.14C56.9868 203.54 56.8668 203.92 56.6268 204.28C56.4268 204.64 55.9868 204.94 55.3068 205.18C54.4268 205.54 53.2268 205.78 51.7068 205.9C50.2268 206.02 48.4468 206.08 46.3668 206.08Z" fill="#F7F7F7"/>
<path id="Vector_8" d="M28.7516 192.16C28.7516 195.44 28.3916 198.02 27.6716 199.9C26.9516 201.74 25.9116 203.08 24.5516 203.92C23.2316 204.76 21.5916 205.3 19.6316 205.54C17.7116 205.74 15.5316 205.84 13.0916 205.84C11.9316 205.84 10.7116 205.82 9.43159 205.78C8.1916 205.78 6.95159 205.78 5.71159 205.78C4.51159 205.78 3.41159 205.76 2.41159 205.72C1.45159 205.72 0.671594 205.72 0.0715942 205.72V181.96C0.0715942 180.68 0.231594 179.74 0.551594 179.14C0.911594 178.54 1.81159 178.2 3.25159 178.12C3.89159 178.08 4.73159 178.06 5.77159 178.06C6.81159 178.06 7.9116 178.06 9.0716 178.06C10.2716 178.02 11.4316 178 12.5516 178C13.6716 178 14.6116 178.02 15.3716 178.06C17.5716 178.14 19.4916 178.32 21.1316 178.6C22.8116 178.88 24.2116 179.48 25.3316 180.4C26.4916 181.32 27.3516 182.72 27.9116 184.6C28.4716 186.44 28.7516 188.96 28.7516 192.16ZM4.69159 203.14C4.97159 203.14 5.47159 203.16 6.19159 203.2C6.95159 203.2 7.7716 203.2 8.6516 203.2C9.5316 203.2 10.3716 203.22 11.1716 203.26C12.0116 203.26 12.6516 203.26 13.0916 203.26C15.1316 203.26 16.8516 203.12 18.2516 202.84C19.6516 202.56 20.7716 202.04 21.6116 201.28C22.4916 200.48 23.1116 199.36 23.4716 197.92C23.8716 196.44 24.0716 194.52 24.0716 192.16C24.0716 188.96 23.7316 186.54 23.0516 184.9C22.4116 183.22 21.3116 182.08 19.7516 181.48C18.2316 180.88 16.0916 180.58 13.3316 180.58C12.7716 180.58 11.9716 180.58 10.9316 180.58C9.93159 180.58 8.93159 180.6 7.93159 180.64C6.93159 180.64 6.15159 180.68 5.59159 180.76C5.31159 180.92 5.09159 181.14 4.93159 181.42C4.77159 181.66 4.69159 182.16 4.69159 182.92V203.14Z" fill="#F7F7F7"/>
</g>
<g id="Interior Services">
<path id="Vector_9" d="M125.314 226.198C125.314 225.963 125.262 225.747 125.156 225.547C125.057 225.342 124.849 225.158 124.532 224.994C124.222 224.824 123.753 224.677 123.126 224.554C122.599 224.443 122.121 224.311 121.693 224.159C121.271 224.006 120.911 223.822 120.612 223.605C120.319 223.388 120.094 223.133 119.936 222.84C119.777 222.547 119.698 222.205 119.698 221.812C119.698 221.437 119.78 221.083 119.944 220.749C120.114 220.415 120.352 220.119 120.656 219.861C120.967 219.603 121.339 219.401 121.772 219.254C122.206 219.108 122.689 219.035 123.223 219.035C123.984 219.035 124.635 219.169 125.174 219.439C125.713 219.708 126.126 220.069 126.413 220.52C126.7 220.965 126.844 221.46 126.844 222.005H125.218C125.218 221.742 125.139 221.487 124.98 221.241C124.828 220.989 124.603 220.781 124.304 220.617C124.011 220.453 123.65 220.371 123.223 220.371C122.771 220.371 122.405 220.441 122.124 220.582C121.849 220.716 121.646 220.889 121.518 221.1C121.395 221.311 121.333 221.534 121.333 221.768C121.333 221.944 121.362 222.102 121.421 222.243C121.485 222.377 121.597 222.503 121.755 222.621C121.913 222.732 122.136 222.837 122.423 222.937C122.71 223.037 123.076 223.136 123.521 223.236C124.301 223.412 124.942 223.623 125.446 223.869C125.95 224.115 126.325 224.417 126.571 224.774C126.817 225.131 126.94 225.565 126.94 226.075C126.94 226.491 126.853 226.872 126.677 227.217C126.507 227.563 126.258 227.862 125.93 228.114C125.607 228.36 125.221 228.553 124.77 228.694C124.324 228.829 123.823 228.896 123.267 228.896C122.429 228.896 121.72 228.747 121.14 228.448C120.56 228.149 120.12 227.762 119.821 227.288C119.522 226.813 119.373 226.312 119.373 225.785H121.008C121.031 226.23 121.16 226.584 121.395 226.848C121.629 227.106 121.916 227.291 122.256 227.402C122.596 227.507 122.933 227.56 123.267 227.56C123.712 227.56 124.084 227.501 124.383 227.384C124.688 227.267 124.919 227.106 125.077 226.901C125.235 226.696 125.314 226.461 125.314 226.198Z" fill="#F7F7F7"/>
<path id="Vector_10" d="M114.179 228.896C113.517 228.896 112.916 228.785 112.377 228.562C111.844 228.333 111.384 228.014 110.997 227.604C110.616 227.194 110.323 226.708 110.118 226.145C109.913 225.583 109.811 224.967 109.811 224.299V223.93C109.811 223.157 109.925 222.468 110.153 221.865C110.382 221.255 110.692 220.74 111.085 220.318C111.478 219.896 111.923 219.577 112.421 219.36C112.919 219.143 113.435 219.035 113.968 219.035C114.647 219.035 115.233 219.152 115.726 219.386C116.224 219.621 116.631 219.949 116.947 220.371C117.264 220.787 117.498 221.279 117.65 221.847C117.803 222.41 117.879 223.025 117.879 223.693V224.422H110.777V223.095H116.253V222.972C116.229 222.55 116.142 222.14 115.989 221.742C115.843 221.343 115.608 221.015 115.286 220.757C114.964 220.5 114.524 220.371 113.968 220.371C113.599 220.371 113.259 220.45 112.948 220.608C112.638 220.76 112.371 220.989 112.148 221.293C111.926 221.598 111.753 221.97 111.63 222.41C111.507 222.849 111.445 223.356 111.445 223.93V224.299C111.445 224.75 111.507 225.175 111.63 225.574C111.759 225.966 111.943 226.312 112.184 226.611C112.43 226.91 112.726 227.144 113.071 227.314C113.423 227.484 113.821 227.569 114.267 227.569C114.841 227.569 115.327 227.452 115.726 227.217C116.124 226.983 116.473 226.669 116.771 226.277L117.756 227.059C117.551 227.37 117.29 227.666 116.974 227.947C116.657 228.228 116.268 228.457 115.805 228.632C115.348 228.808 114.806 228.896 114.179 228.896Z" fill="#F7F7F7"/>
<path id="Vector_11" d="M104.616 227.56C105.003 227.56 105.36 227.481 105.688 227.323C106.017 227.165 106.286 226.948 106.497 226.672C106.708 226.391 106.828 226.072 106.857 225.714H108.404C108.375 226.277 108.185 226.801 107.833 227.288C107.487 227.768 107.033 228.158 106.471 228.457C105.908 228.75 105.29 228.896 104.616 228.896C103.901 228.896 103.277 228.77 102.744 228.518C102.217 228.266 101.777 227.92 101.426 227.481C101.08 227.042 100.819 226.538 100.644 225.969C100.474 225.395 100.389 224.789 100.389 224.15V223.781C100.389 223.142 100.474 222.539 100.644 221.97C100.819 221.396 101.08 220.889 101.426 220.45C101.777 220.01 102.217 219.665 102.744 219.413C103.277 219.161 103.901 219.035 104.616 219.035C105.36 219.035 106.011 219.187 106.567 219.492C107.124 219.791 107.561 220.201 107.877 220.722C108.199 221.238 108.375 221.824 108.404 222.48H106.857C106.828 222.087 106.717 221.733 106.523 221.417C106.336 221.1 106.078 220.848 105.75 220.661C105.428 220.467 105.05 220.371 104.616 220.371C104.118 220.371 103.699 220.47 103.359 220.669C103.025 220.863 102.759 221.126 102.56 221.46C102.366 221.789 102.226 222.155 102.138 222.559C102.056 222.958 102.015 223.365 102.015 223.781V224.15C102.015 224.566 102.056 224.976 102.138 225.38C102.22 225.785 102.357 226.151 102.551 226.479C102.75 226.807 103.017 227.071 103.351 227.27C103.69 227.463 104.112 227.56 104.616 227.56Z" fill="#F7F7F7"/>
<path id="Vector_12" d="M98.2002 219.21V228.72H96.5654V219.21H98.2002ZM96.4424 216.688C96.4424 216.424 96.5215 216.202 96.6797 216.02C96.8438 215.838 97.084 215.748 97.4004 215.748C97.7109 215.748 97.9482 215.838 98.1123 216.02C98.2822 216.202 98.3672 216.424 98.3672 216.688C98.3672 216.94 98.2822 217.157 98.1123 217.338C97.9482 217.514 97.7109 217.602 97.4004 217.602C97.084 217.602 96.8438 217.514 96.6797 217.338C96.5215 217.157 96.4424 216.94 96.4424 216.688Z" fill="#F7F7F7"/>
<path id="Vector_13" d="M90.6064 227.252L93.208 219.21H94.8691L91.4502 228.72H90.3604L90.6064 227.252ZM88.4355 219.21L91.1162 227.296L91.3008 228.72H90.2109L86.7656 219.21H88.4355Z" fill="#F7F7F7"/>
<path id="Vector_14" d="M83.083 220.705V228.72H81.457V219.21H83.0391L83.083 220.705ZM86.0537 219.158L86.0449 220.669C85.9102 220.64 85.7812 220.623 85.6582 220.617C85.541 220.605 85.4062 220.599 85.2539 220.599C84.8789 220.599 84.5479 220.658 84.2607 220.775C83.9736 220.892 83.7305 221.056 83.5312 221.267C83.332 221.478 83.1738 221.73 83.0566 222.023C82.9453 222.31 82.8721 222.626 82.8369 222.972L82.3799 223.236C82.3799 222.662 82.4355 222.123 82.5469 221.619C82.6641 221.115 82.8428 220.669 83.083 220.283C83.3232 219.89 83.6279 219.585 83.9971 219.369C84.3721 219.146 84.8174 219.035 85.333 219.035C85.4502 219.035 85.585 219.049 85.7373 219.079C85.8896 219.102 85.9951 219.128 86.0537 219.158Z" fill="#F7F7F7"/>
<path id="Vector_15" d="M75.8584 228.896C75.1963 228.896 74.5957 228.785 74.0566 228.562C73.5234 228.333 73.0635 228.014 72.6768 227.604C72.2959 227.194 72.0029 226.708 71.7979 226.145C71.5928 225.583 71.4902 224.967 71.4902 224.299V223.93C71.4902 223.157 71.6045 222.468 71.833 221.865C72.0615 221.255 72.3721 220.74 72.7646 220.318C73.1572 219.896 73.6025 219.577 74.1006 219.36C74.5986 219.143 75.1143 219.035 75.6475 219.035C76.3271 219.035 76.9131 219.152 77.4053 219.386C77.9033 219.621 78.3105 219.949 78.627 220.371C78.9434 220.787 79.1777 221.279 79.3301 221.847C79.4824 222.41 79.5586 223.025 79.5586 223.693V224.422H72.457V223.095H77.9326V222.972C77.9092 222.55 77.8213 222.14 77.6689 221.742C77.5225 221.343 77.2881 221.015 76.9658 220.757C76.6436 220.5 76.2041 220.371 75.6475 220.371C75.2783 220.371 74.9385 220.45 74.6279 220.608C74.3174 220.76 74.0508 220.989 73.8281 221.293C73.6055 221.598 73.4326 221.97 73.3096 222.41C73.1865 222.849 73.125 223.356 73.125 223.93V224.299C73.125 224.75 73.1865 225.175 73.3096 225.574C73.4385 225.966 73.623 226.312 73.8633 226.611C74.1094 226.91 74.4053 227.144 74.751 227.314C75.1025 227.484 75.501 227.569 75.9463 227.569C76.5205 227.569 77.0068 227.452 77.4053 227.217C77.8037 226.983 78.1523 226.669 78.4512 226.277L79.4355 227.059C79.2305 227.37 78.9697 227.666 78.6533 227.947C78.3369 228.228 77.9473 228.457 77.4844 228.632C77.0273 228.808 76.4854 228.896 75.8584 228.896Z" fill="#F7F7F7"/>
<path id="Vector_16" d="M68.291 225.486C68.291 225.187 68.2441 224.923 68.1504 224.695C68.0625 224.46 67.9043 224.25 67.6758 224.062C67.4531 223.875 67.1426 223.696 66.7441 223.526C66.3516 223.356 65.8535 223.183 65.25 223.007C64.6172 222.82 64.0459 222.612 63.5361 222.383C63.0264 222.149 62.5898 221.882 62.2266 221.583C61.8633 221.285 61.585 220.942 61.3916 220.555C61.1982 220.168 61.1016 219.726 61.1016 219.228C61.1016 218.73 61.2041 218.27 61.4092 217.848C61.6143 217.426 61.9072 217.06 62.2881 216.75C62.6748 216.433 63.1348 216.187 63.668 216.011C64.2012 215.835 64.7959 215.748 65.4521 215.748C66.4131 215.748 67.2275 215.932 67.8955 216.301C68.5693 216.665 69.082 217.142 69.4336 217.734C69.7852 218.32 69.9609 218.947 69.9609 219.615H68.2734C68.2734 219.134 68.1709 218.709 67.9658 218.34C67.7607 217.965 67.4502 217.672 67.0342 217.461C66.6182 217.245 66.0908 217.136 65.4521 217.136C64.8486 217.136 64.3506 217.227 63.958 217.409C63.5654 217.59 63.2725 217.836 63.0791 218.147C62.8916 218.458 62.7979 218.812 62.7979 219.21C62.7979 219.48 62.8535 219.726 62.9648 219.949C63.082 220.166 63.2607 220.368 63.501 220.555C63.7471 220.743 64.0576 220.916 64.4326 221.074C64.8135 221.232 65.2676 221.384 65.7949 221.531C66.5215 221.736 67.1484 221.964 67.6758 222.216C68.2031 222.468 68.6367 222.752 68.9766 223.069C69.3223 223.379 69.5771 223.734 69.7412 224.132C69.9111 224.525 69.9961 224.97 69.9961 225.468C69.9961 225.99 69.8906 226.461 69.6797 226.883C69.4688 227.305 69.167 227.666 68.7744 227.964C68.3818 228.263 67.9102 228.495 67.3594 228.659C66.8145 228.817 66.2051 228.896 65.5312 228.896C64.9395 228.896 64.3564 228.814 63.7822 228.65C63.2139 228.486 62.6953 228.24 62.2266 227.912C61.7637 227.583 61.3916 227.179 61.1104 226.699C60.835 226.212 60.6973 225.65 60.6973 225.011H62.3848C62.3848 225.451 62.4697 225.829 62.6396 226.145C62.8096 226.456 63.041 226.713 63.334 226.918C63.6328 227.124 63.9697 227.276 64.3447 227.375C64.7256 227.469 65.1211 227.516 65.5312 227.516C66.123 227.516 66.624 227.434 67.0342 227.27C67.4443 227.106 67.7549 226.872 67.9658 226.567C68.1826 226.262 68.291 225.902 68.291 225.486Z" fill="#F7F7F7"/>
<path id="Vector_17" d="M52.2861 220.705V228.72H50.6602V219.21H52.2422L52.2861 220.705ZM55.2568 219.158L55.248 220.669C55.1133 220.64 54.9844 220.623 54.8613 220.617C54.7441 220.605 54.6094 220.599 54.457 220.599C54.082 220.599 53.751 220.658 53.4639 220.775C53.1768 220.892 52.9336 221.056 52.7344 221.267C52.5352 221.478 52.377 221.73 52.2598 222.023C52.1484 222.31 52.0752 222.626 52.04 222.972L51.583 223.236C51.583 222.662 51.6387 222.123 51.75 221.619C51.8672 221.115 52.0459 220.669 52.2861 220.283C52.5264 219.89 52.8311 219.585 53.2002 219.369C53.5752 219.146 54.0205 219.035 54.5361 219.035C54.6533 219.035 54.7881 219.049 54.9404 219.079C55.0928 219.102 55.1982 219.128 55.2568 219.158Z" fill="#F7F7F7"/>
<path id="Vector_18" d="M39.9639 224.071V223.869C39.9639 223.183 40.0635 222.547 40.2627 221.961C40.4619 221.37 40.749 220.857 41.124 220.423C41.499 219.984 41.9531 219.644 42.4863 219.404C43.0195 219.158 43.6172 219.035 44.2793 219.035C44.9473 219.035 45.5479 219.158 46.0811 219.404C46.6201 219.644 47.0771 219.984 47.4521 220.423C47.833 220.857 48.123 221.37 48.3223 221.961C48.5215 222.547 48.6211 223.183 48.6211 223.869V224.071C48.6211 224.756 48.5215 225.392 48.3223 225.978C48.123 226.564 47.833 227.077 47.4521 227.516C47.0771 227.95 46.623 228.29 46.0898 228.536C45.5625 228.776 44.9648 228.896 44.2969 228.896C43.6289 228.896 43.0283 228.776 42.4951 228.536C41.9619 228.29 41.5049 227.95 41.124 227.516C40.749 227.077 40.4619 226.564 40.2627 225.978C40.0635 225.392 39.9639 224.756 39.9639 224.071ZM41.5898 223.869V224.071C41.5898 224.545 41.6455 224.994 41.7568 225.416C41.8682 225.832 42.0352 226.201 42.2578 226.523C42.4863 226.845 42.7705 227.1 43.1104 227.288C43.4502 227.469 43.8457 227.56 44.2969 227.56C44.7422 227.56 45.1318 227.469 45.4658 227.288C45.8057 227.1 46.0869 226.845 46.3096 226.523C46.5322 226.201 46.6992 225.832 46.8105 225.416C46.9277 224.994 46.9863 224.545 46.9863 224.071V223.869C46.9863 223.4 46.9277 222.958 46.8105 222.542C46.6992 222.12 46.5293 221.748 46.3008 221.425C46.0781 221.097 45.7969 220.839 45.457 220.652C45.123 220.464 44.7305 220.371 44.2793 220.371C43.834 220.371 43.4414 220.464 43.1016 220.652C42.7676 220.839 42.4863 221.097 42.2578 221.425C42.0352 221.748 41.8682 222.12 41.7568 222.542C41.6455 222.958 41.5898 223.4 41.5898 223.869Z" fill="#F7F7F7"/>
<path id="Vector_19" d="M37.7842 219.21V228.72H36.1494V219.21H37.7842ZM36.0264 216.688C36.0264 216.424 36.1055 216.202 36.2637 216.02C36.4277 215.838 36.668 215.748 36.9844 215.748C37.2949 215.748 37.5322 215.838 37.6963 216.02C37.8662 216.202 37.9512 216.424 37.9512 216.688C37.9512 216.94 37.8662 217.157 37.6963 217.338C37.5322 217.514 37.2949 217.602 36.9844 217.602C36.668 217.602 36.4277 217.514 36.2637 217.338C36.1055 217.157 36.0264 216.94 36.0264 216.688Z" fill="#F7F7F7"/>
<path id="Vector_20" d="M31.5439 220.705V228.72H29.918V219.21H31.5L31.5439 220.705ZM34.5146 219.158L34.5059 220.669C34.3711 220.64 34.2422 220.623 34.1191 220.617C34.002 220.605 33.8672 220.599 33.7148 220.599C33.3398 220.599 33.0088 220.658 32.7217 220.775C32.4346 220.892 32.1914 221.056 31.9922 221.267C31.793 221.478 31.6348 221.73 31.5176 222.023C31.4062 222.31 31.333 222.626 31.2979 222.972L30.8408 223.236C30.8408 222.662 30.8965 222.123 31.0078 221.619C31.125 221.115 31.3037 220.669 31.5439 220.283C31.7842 219.89 32.0889 219.585 32.458 219.369C32.833 219.146 33.2783 219.035 33.7939 219.035C33.9111 219.035 34.0459 219.049 34.1982 219.079C34.3506 219.102 34.4561 219.128 34.5146 219.158Z" fill="#F7F7F7"/>
<path id="Vector_21" d="M24.3193 228.896C23.6572 228.896 23.0566 228.785 22.5176 228.562C21.9844 228.333 21.5244 228.014 21.1377 227.604C20.7568 227.194 20.4639 226.708 20.2588 226.145C20.0537 225.583 19.9512 224.967 19.9512 224.299V223.93C19.9512 223.157 20.0654 222.468 20.2939 221.865C20.5225 221.255 20.833 220.74 21.2256 220.318C21.6182 219.896 22.0635 219.577 22.5615 219.36C23.0596 219.143 23.5752 219.035 24.1084 219.035C24.7881 219.035 25.374 219.152 25.8662 219.386C26.3643 219.621 26.7715 219.949 27.0879 220.371C27.4043 220.787 27.6387 221.279 27.791 221.847C27.9434 222.41 28.0195 223.025 28.0195 223.693V224.422H20.918V223.095H26.3936V222.972C26.3701 222.55 26.2822 222.14 26.1299 221.742C25.9834 221.343 25.749 221.015 25.4268 220.757C25.1045 220.5 24.665 220.371 24.1084 220.371C23.7393 220.371 23.3994 220.45 23.0889 220.608C22.7783 220.76 22.5117 220.989 22.2891 221.293C22.0664 221.598 21.8936 221.97 21.7705 222.41C21.6475 222.849 21.5859 223.356 21.5859 223.93V224.299C21.5859 224.75 21.6475 225.175 21.7705 225.574C21.8994 225.966 22.084 226.312 22.3242 226.611C22.5703 226.91 22.8662 227.144 23.2119 227.314C23.5635 227.484 23.9619 227.569 24.4072 227.569C24.9814 227.569 25.4678 227.452 25.8662 227.217C26.2646 226.983 26.6133 226.669 26.9121 226.277L27.8965 227.059C27.6914 227.37 27.4307 227.666 27.1143 227.947C26.7979 228.228 26.4082 228.457 25.9453 228.632C25.4883 228.808 24.9463 228.896 24.3193 228.896Z" fill="#F7F7F7"/>
<path id="Vector_22" d="M18.4658 219.21V220.458H13.3242V219.21H18.4658ZM15.0645 216.899H16.6904V226.365C16.6904 226.687 16.7402 226.93 16.8398 227.094C16.9395 227.258 17.0684 227.367 17.2266 227.419C17.3848 227.472 17.5547 227.499 17.7363 227.499C17.8711 227.499 18.0117 227.487 18.1582 227.463C18.3105 227.434 18.4248 227.411 18.501 227.393L18.5098 228.72C18.3809 228.761 18.2109 228.799 18 228.834C17.7949 228.875 17.5459 228.896 17.2529 228.896C16.8545 228.896 16.4883 228.817 16.1543 228.659C15.8203 228.5 15.5537 228.237 15.3545 227.868C15.1611 227.493 15.0645 226.989 15.0645 226.356V216.899Z" fill="#F7F7F7"/>
<path id="Vector_23" d="M6.16113 221.241V228.72H4.53516V219.21H6.07324L6.16113 221.241ZM5.77441 223.605L5.09766 223.579C5.10352 222.928 5.2002 222.328 5.3877 221.777C5.5752 221.22 5.83887 220.737 6.17871 220.327C6.51855 219.917 6.92285 219.6 7.3916 219.377C7.86621 219.149 8.39062 219.035 8.96484 219.035C9.43359 219.035 9.85547 219.099 10.2305 219.228C10.6055 219.351 10.9248 219.55 11.1885 219.826C11.458 220.101 11.6631 220.458 11.8037 220.898C11.9443 221.332 12.0146 221.862 12.0146 222.489V228.72H10.3799V222.471C10.3799 221.973 10.3066 221.575 10.1602 221.276C10.0137 220.971 9.7998 220.751 9.51855 220.617C9.2373 220.476 8.8916 220.406 8.48145 220.406C8.07715 220.406 7.70801 220.491 7.37402 220.661C7.0459 220.831 6.76172 221.065 6.52148 221.364C6.28711 221.663 6.10254 222.005 5.96777 222.392C5.83887 222.773 5.77441 223.177 5.77441 223.605Z" fill="#F7F7F7"/>
<path id="Vector_24" d="M1.69629 215.923V228.72H0V215.923H1.69629Z" fill="#F7F7F7"/>
</g>
</g>
</svg>
