<svg width="216" height="42" viewBox="0 0 216 42" fill="none" xmlns="http://www.w3.org/2000/svg">
<g id="Group 3">
<path id="Vector" d="M7.78486 15.0397L12.781 12.1284L9.99223 7.25055H36.2198L23.1103 30.2009L20.3215 25.3146L15.3254 28.2344L23.1103 41.8549L46.2121 1.41934H0L7.78486 15.0397Z" fill="#E2725B"/>
<g id="Decoran">
<path id="Vector_2" d="M198.548 22.875C197.789 22.875 197.409 22.4789 197.409 21.6866V4.55516C198.366 4.12605 199.621 3.74645 201.172 3.41637C202.756 3.08628 204.572 2.92123 206.618 2.92123C208.533 2.92123 210.084 3.05327 211.273 3.31734C212.461 3.58141 213.369 3.97751 213.996 4.50565C214.623 5.03379 215.036 5.72697 215.234 6.58519C215.465 7.41041 215.58 8.41717 215.58 9.60548V21.3896C215.58 21.7527 215.531 22.0497 215.432 22.2808C215.366 22.5119 215.217 22.6769 214.986 22.7759C214.788 22.8419 214.474 22.875 214.045 22.875H212.114V8.9123C212.114 7.59195 211.685 6.6182 210.827 5.99104C209.969 5.36387 208.566 5.05029 206.618 5.05029C205.991 5.05029 205.298 5.0998 204.539 5.19883C203.813 5.29786 203.119 5.4464 202.459 5.64445C201.799 5.80949 201.254 6.04055 200.825 6.33763V22.875H198.548Z" fill="#303030"/>
<path id="Vector_3" d="M181.892 23.2215C179.944 23.2215 178.36 23.1225 177.138 22.9245C175.917 22.7264 174.976 22.3963 174.316 21.9342C173.689 21.4391 173.243 20.7954 172.979 20.0032C172.748 19.211 172.633 18.2372 172.633 17.0819C172.633 15.3985 172.831 14.1112 173.227 13.2199C173.623 12.3287 174.316 11.718 175.307 11.3879C176.297 11.0579 177.617 10.8928 179.268 10.8928C180.093 10.8928 180.984 10.9258 181.941 10.9918C182.932 11.0249 183.872 11.0744 184.763 11.1404C185.688 11.1734 186.48 11.2229 187.14 11.2889C187.833 11.3549 188.295 11.4375 188.526 11.5365C188.526 10.0181 188.394 8.81328 188.13 7.92204C187.866 7.03081 187.454 6.37064 186.893 5.94153C186.364 5.51241 185.688 5.23184 184.863 5.09981C184.07 4.96777 183.146 4.90176 182.09 4.90176C181 4.90176 179.895 4.95127 178.772 5.05029C177.683 5.11631 176.676 5.24834 175.752 5.4464C174.828 5.61144 174.118 5.8425 173.623 6.13958V5.39688C173.623 4.7037 173.821 4.22508 174.217 3.96101C174.646 3.66393 175.125 3.46588 175.653 3.36685C176.28 3.20181 177.188 3.06978 178.376 2.97075C179.598 2.87172 180.868 2.83871 182.189 2.87172C183.872 2.87172 185.308 2.95425 186.496 3.11929C187.718 3.28433 188.725 3.64743 189.517 4.20857C190.309 4.73671 190.903 5.54542 191.299 6.63471C191.695 7.72399 191.893 9.20938 191.893 11.0909V21.2905C191.695 21.9507 190.821 22.4458 189.269 22.7759C187.718 23.073 185.259 23.2215 181.892 23.2215ZM181.892 21.5381C183.41 21.5381 184.615 21.4886 185.506 21.3896C186.43 21.2905 187.124 21.1585 187.586 20.9935C188.081 20.8284 188.394 20.6139 188.526 20.3498V12.9724C188.229 12.8733 187.668 12.7743 186.843 12.6753C186.051 12.5763 185.209 12.4937 184.318 12.4277C183.427 12.3287 182.667 12.2792 182.04 12.2792C180.621 12.2792 179.466 12.3617 178.574 12.5267C177.716 12.6918 177.089 13.1044 176.693 13.7646C176.33 14.4247 176.148 15.448 176.148 16.8344C176.148 17.9237 176.28 18.8149 176.544 19.5081C176.808 20.2013 177.337 20.7129 178.129 21.043C178.954 21.3731 180.208 21.5381 181.892 21.5381Z" fill="#303030"/>
<path id="Vector_4" d="M157.599 22.875H155.421C154.992 22.875 154.662 22.7759 154.431 22.5779C154.233 22.3468 154.134 21.9342 154.134 21.3401V4.10956C154.86 3.8785 155.85 3.63094 157.104 3.36687C158.392 3.1028 159.976 2.97076 161.858 2.97076C163.64 2.97076 165.043 3.1028 166.066 3.36687C167.122 3.59793 167.882 3.92801 168.344 4.35713C168.839 4.78624 169.152 5.31438 169.285 5.94154C169.45 6.5357 169.532 7.21237 169.532 7.97157H166.215L166.165 7.27839C166.132 6.51919 165.885 5.97455 165.422 5.64446C164.96 5.28137 164.416 5.06681 163.789 5.00079C163.161 4.90177 162.534 4.85226 161.907 4.85226C160.95 4.85226 160.092 4.93478 159.332 5.09982C158.606 5.26486 158.029 5.47942 157.599 5.74349V22.875Z" fill="#303030"/>
<path id="Vector_5" d="M139.164 23.172C137.646 23.172 136.276 23.0565 135.055 22.8255C133.867 22.5944 132.827 22.1323 131.936 21.4391C131.077 20.7459 130.417 19.7226 129.955 18.3693C129.493 17.0159 129.262 15.2335 129.262 13.0219C129.262 10.8103 129.493 9.02784 129.955 7.67449C130.417 6.32114 131.077 5.29787 131.936 4.60469C132.827 3.91151 133.867 3.44939 135.055 3.21833C136.276 2.98726 137.646 2.87173 139.164 2.87173C140.65 2.87173 141.987 2.98726 143.175 3.21833C144.396 3.44939 145.436 3.91151 146.294 4.60469C147.153 5.29787 147.813 6.32114 148.275 7.67449C148.737 9.02784 148.968 10.8103 148.968 13.0219C148.968 15.2665 148.737 17.0654 148.275 18.4188C147.813 19.7722 147.153 20.7954 146.294 21.4886C145.436 22.1488 144.396 22.5944 143.175 22.8255C141.987 23.0565 140.65 23.172 139.164 23.172ZM139.164 21.241C140.485 21.241 141.607 21.043 142.531 20.6469C143.489 20.2508 144.215 19.4751 144.71 18.3198C145.205 17.1645 145.453 15.3985 145.453 13.0219C145.453 10.6453 145.205 8.87931 144.71 7.724C144.215 6.5687 143.489 5.793 142.531 5.3969C141.607 5.00079 140.485 4.80274 139.164 4.80274C137.844 4.80274 136.705 5.00079 135.748 5.3969C134.824 5.793 134.098 6.5687 133.569 7.724C133.074 8.87931 132.827 10.6453 132.827 13.0219C132.827 15.3985 133.074 17.1645 133.569 18.3198C134.098 19.4751 134.824 20.2508 135.748 20.6469C136.705 21.043 137.844 21.241 139.164 21.241Z" fill="#303030"/>
<path id="Vector_6" d="M118.489 23.1721C115.915 23.1721 113.835 22.908 112.251 22.3798C110.666 21.8517 109.511 20.878 108.785 19.4586C108.092 18.0062 107.745 15.8937 107.745 13.1209C107.745 10.3152 108.092 8.16963 108.785 6.68424C109.511 5.19886 110.666 4.19209 112.251 3.66396C113.835 3.10281 115.915 2.82224 118.489 2.82224C119.348 2.82224 120.14 2.85524 120.866 2.92126C121.625 2.98728 122.483 3.10281 123.441 3.26785C123.969 3.33387 124.398 3.4659 124.728 3.66396C125.058 3.829 125.289 4.07656 125.421 4.40665C125.553 4.70373 125.619 5.14934 125.619 5.7435C125.256 5.54545 124.678 5.3804 123.886 5.24837C123.127 5.11633 122.318 5.01731 121.46 4.95129C120.602 4.85227 119.843 4.80275 119.182 4.80275C117.202 4.80275 115.634 5.06682 114.479 5.59496C113.323 6.09009 112.498 6.93181 112.003 8.12012C111.541 9.27542 111.31 10.8763 111.31 12.9229C111.31 14.9694 111.541 16.6033 112.003 17.8247C112.465 19.013 113.274 19.8547 114.429 20.3498C115.585 20.8449 117.169 21.0925 119.182 21.0925C120.107 21.0925 120.981 21.0595 121.807 20.9935C122.632 20.8945 123.375 20.7789 124.035 20.6469C124.728 20.4819 125.256 20.3003 125.619 20.1023V21.1915C125.619 21.6867 125.306 22.0828 124.678 22.3798C124.084 22.6439 123.259 22.842 122.203 22.974C121.147 23.106 119.909 23.1721 118.489 23.1721Z" fill="#303030"/>
<path id="Vector_7" d="M94.8793 23.172C92.9648 23.172 91.3474 23.04 90.027 22.7759C88.7397 22.5119 87.6999 22.0167 86.9077 21.2905C86.1485 20.5644 85.5874 19.5576 85.2243 18.2703C84.8942 16.9499 84.7291 15.25 84.7291 13.1704C84.7291 10.7938 85.0262 8.8463 85.6204 7.3279C86.2145 5.8095 87.2708 4.68721 88.7892 3.96102C90.3076 3.23483 92.4366 2.87173 95.1764 2.87173C97.2889 2.87173 98.9724 3.15231 100.227 3.71346C101.514 4.2746 102.438 5.13283 102.999 6.28813C103.594 7.44343 103.891 8.94532 103.891 10.7938V13.616H89.928C89.928 13.2199 90.027 12.8899 90.2251 12.6258C90.4231 12.3287 90.7862 12.1802 91.3143 12.1802H100.771L100.722 10.7443C100.689 8.69776 100.243 7.21237 99.385 6.28813C98.5597 5.36389 97.1074 4.90177 95.0278 4.90177C93.2784 4.90177 91.9085 5.16584 90.9182 5.69397C89.928 6.22211 89.2348 7.08034 88.8387 8.26865C88.4426 9.45696 88.2445 11.0744 88.2445 13.1209C88.2445 15.2995 88.4591 16.9664 88.8882 18.1217C89.3503 19.244 90.1095 20.0197 91.1658 20.4488C92.2221 20.8449 93.658 21.043 95.4734 21.043C96.1006 21.043 96.8103 21.0265 97.6025 20.9935C98.4277 20.9275 99.2529 20.8614 100.078 20.7954C100.903 20.7294 101.63 20.6469 102.257 20.5479C102.917 20.4158 103.379 20.2838 103.643 20.1518V20.7459C103.643 21.076 103.544 21.3896 103.346 21.6867C103.181 21.9837 102.818 22.2313 102.257 22.4293C101.531 22.7264 100.54 22.9245 99.2859 23.0235C98.0646 23.1225 96.5957 23.172 94.8793 23.172Z" fill="#303030"/>
<path id="Vector_8" d="M80.343 11.6851C80.343 14.3918 80.0459 16.5208 79.4517 18.0722C78.8576 19.5906 77.9994 20.6964 76.8771 21.3896C75.7878 22.0828 74.4344 22.5284 72.817 22.7264C71.2326 22.8915 69.4336 22.974 67.4201 22.974C66.4628 22.974 65.4561 22.9575 64.3998 22.9245C63.3765 22.9245 62.3533 22.9245 61.33 22.9245C60.3397 22.9245 59.432 22.908 58.6068 22.875C57.8146 22.875 57.1709 22.875 56.6758 22.875V3.26785C56.6758 2.21158 56.8078 1.43587 57.0719 0.940745C57.369 0.445616 58.1117 0.165043 59.3 0.0990266C59.8281 0.0660174 60.5213 0.0495125 61.3795 0.0495125C62.2377 0.0495125 63.1455 0.0495125 64.1027 0.0495125C65.093 0.0165043 66.0502 0 66.9745 0C67.8987 0 68.6744 0.0165043 69.3016 0.0495125C71.1171 0.11553 72.7015 0.264069 74.0548 0.49513C75.4412 0.72619 76.5965 1.22132 77.5207 1.98052C78.478 2.73972 79.1877 3.89502 79.6498 5.44642C80.1119 6.96482 80.343 9.04436 80.343 11.6851ZM60.4883 20.7459C60.7193 20.7459 61.1319 20.7624 61.7261 20.7954C62.3533 20.7954 63.0299 20.7954 63.7561 20.7954C64.4823 20.7954 65.1755 20.8119 65.8357 20.845C66.5289 20.845 67.057 20.845 67.4201 20.845C69.1035 20.845 70.5229 20.7294 71.6782 20.4984C72.8335 20.2673 73.7577 19.8382 74.4509 19.211C75.1771 18.5509 75.6888 17.6266 75.9858 16.4383C76.3159 15.217 76.481 13.6326 76.481 11.6851C76.481 9.04436 76.2004 7.04734 75.6392 5.69399C75.1111 4.30763 74.2034 3.36688 72.916 2.87175C71.6617 2.37662 69.8957 2.12906 67.6181 2.12906C67.156 2.12906 66.4958 2.12906 65.6376 2.12906C64.8124 2.12906 63.9872 2.14556 63.162 2.17857C62.3368 2.17857 61.6931 2.21158 61.231 2.2776C60.9999 2.40963 60.8184 2.59118 60.6863 2.82224C60.5543 3.02029 60.4883 3.4329 60.4883 4.06006V20.7459Z" fill="#303030"/>
</g>
<g id="Interior Services">
<path id="Vector_9" d="M160.028 39.7734C160.028 39.58 159.985 39.4011 159.898 39.2367C159.815 39.0674 159.644 38.9151 159.383 38.7797C159.126 38.6395 158.74 38.5186 158.222 38.4171C157.787 38.3252 157.393 38.2164 157.04 38.0907C156.692 37.965 156.394 37.8127 156.148 37.6338C155.906 37.4549 155.72 37.2445 155.589 37.0028C155.459 36.761 155.394 36.4781 155.394 36.1542C155.394 35.8447 155.461 35.5522 155.597 35.2766C155.737 35.001 155.933 34.7568 156.184 34.544C156.44 34.3313 156.747 34.1645 157.105 34.0436C157.463 33.9227 157.862 33.8623 158.302 33.8623C158.931 33.8623 159.467 33.9735 159.912 34.1959C160.357 34.4183 160.698 34.7157 160.935 35.088C161.172 35.4555 161.29 35.8641 161.29 36.3137H159.948C159.948 36.0962 159.883 35.8858 159.753 35.6827C159.627 35.4748 159.441 35.3032 159.194 35.1678C158.952 35.0324 158.655 34.9647 158.302 34.9647C157.93 34.9647 157.627 35.0227 157.395 35.1388C157.168 35.25 157.001 35.3926 156.895 35.5667C156.793 35.7408 156.743 35.9245 156.743 36.1179C156.743 36.263 156.767 36.3935 156.815 36.5096C156.868 36.6208 156.96 36.7247 157.091 36.8214C157.221 36.9133 157.405 37.0004 157.642 37.0825C157.879 37.1647 158.181 37.2469 158.549 37.3291C159.192 37.4742 159.721 37.6483 160.137 37.8514C160.553 38.0544 160.862 38.3034 161.065 38.5984C161.268 38.8934 161.37 39.2512 161.37 39.6718C161.37 40.0151 161.297 40.3294 161.152 40.6147C161.012 40.9 160.807 41.1466 160.536 41.3545C160.27 41.5576 159.951 41.7171 159.579 41.8332C159.211 41.9444 158.798 42 158.338 42C157.647 42 157.062 41.8767 156.583 41.6301C156.104 41.3835 155.742 41.0644 155.495 40.6727C155.249 40.2811 155.125 39.8677 155.125 39.4325H156.474C156.494 39.8 156.6 40.0925 156.793 40.3101C156.987 40.5228 157.224 40.6751 157.504 40.767C157.785 40.854 158.063 40.8976 158.338 40.8976C158.706 40.8976 159.013 40.8492 159.259 40.7525C159.511 40.6558 159.702 40.5228 159.832 40.3536C159.963 40.1844 160.028 39.991 160.028 39.7734Z" fill="#303030"/>
<path id="Vector_10" d="M150.839 42C150.292 42 149.797 41.9081 149.352 41.7244C148.912 41.5358 148.532 41.2723 148.213 40.9338C147.899 40.5954 147.657 40.194 147.488 39.7298C147.319 39.2657 147.234 38.758 147.234 38.2067V37.9021C147.234 37.2639 147.328 36.6957 147.517 36.1977C147.706 35.6948 147.962 35.2693 148.286 34.9212C148.61 34.5731 148.977 34.3095 149.388 34.1306C149.799 33.9517 150.225 33.8623 150.665 33.8623C151.226 33.8623 151.709 33.959 152.115 34.1524C152.526 34.3458 152.862 34.6166 153.123 34.9647C153.385 35.308 153.578 35.7142 153.704 36.1832C153.829 36.6474 153.892 37.1551 153.892 37.7063V38.3083H148.032V37.2131H152.55V37.1116C152.531 36.7634 152.459 36.425 152.333 36.0962C152.212 35.7674 152.019 35.4966 151.753 35.2838C151.487 35.0711 151.124 34.9647 150.665 34.9647C150.36 34.9647 150.08 35.03 149.823 35.1605C149.567 35.2863 149.347 35.4748 149.163 35.7263C148.98 35.9777 148.837 36.2847 148.735 36.6474C148.634 37.01 148.583 37.4283 148.583 37.9021V38.2067C148.583 38.5791 148.634 38.9296 148.735 39.2584C148.842 39.5824 148.994 39.8677 149.192 40.1143C149.395 40.3608 149.64 40.5543 149.925 40.6945C150.215 40.8347 150.544 40.9048 150.911 40.9048C151.385 40.9048 151.787 40.8081 152.115 40.6147C152.444 40.4213 152.732 40.1626 152.978 39.8386L153.791 40.4841C153.621 40.7404 153.406 40.9846 153.145 41.2167C152.884 41.4488 152.563 41.6374 152.181 41.7824C151.803 41.9275 151.356 42 150.839 42Z" fill="#303030"/>
<path id="Vector_11" d="M142.948 40.8976C143.267 40.8976 143.562 40.8323 143.832 40.7017C144.103 40.5712 144.326 40.3923 144.5 40.165C144.674 39.9329 144.773 39.6694 144.797 39.3745H146.074C146.049 39.8386 145.892 40.2714 145.602 40.6727C145.317 41.0692 144.942 41.3908 144.478 41.6374C144.014 41.8791 143.504 42 142.948 42C142.358 42 141.843 41.896 141.403 41.6881C140.968 41.4802 140.605 41.1949 140.315 40.8323C140.03 40.4696 139.814 40.0538 139.669 39.5848C139.529 39.1109 139.459 38.6105 139.459 38.0834V37.7788C139.459 37.2518 139.529 36.7538 139.669 36.2847C139.814 35.8109 140.03 35.3926 140.315 35.03C140.605 34.6673 140.968 34.3821 141.403 34.1741C141.843 33.9662 142.358 33.8623 142.948 33.8623C143.562 33.8623 144.098 33.988 144.558 34.2394C145.017 34.486 145.377 34.8245 145.638 35.2548C145.904 35.6803 146.049 36.1639 146.074 36.7054H144.797C144.773 36.3814 144.681 36.0889 144.521 35.8278C144.367 35.5667 144.154 35.3588 143.883 35.2041C143.617 35.0445 143.305 34.9647 142.948 34.9647C142.537 34.9647 142.191 35.0469 141.91 35.2113C141.635 35.3709 141.415 35.5885 141.25 35.8641C141.091 36.1348 140.975 36.437 140.902 36.7707C140.835 37.0995 140.801 37.4355 140.801 37.7788V38.0834C140.801 38.4267 140.835 38.7652 140.902 39.0988C140.97 39.4325 141.084 39.7347 141.243 40.0055C141.408 40.2762 141.628 40.4938 141.903 40.6582C142.184 40.8178 142.532 40.8976 142.948 40.8976Z" fill="#303030"/>
<path id="Vector_12" d="M137.653 34.0074V41.855H136.304V34.0074H137.653ZM136.202 31.9258C136.202 31.7082 136.268 31.5245 136.398 31.3746C136.534 31.2247 136.732 31.1497 136.993 31.1497C137.249 31.1497 137.445 31.2247 137.58 31.3746C137.721 31.5245 137.791 31.7082 137.791 31.9258C137.791 32.1337 137.721 32.3126 137.58 32.4625C137.445 32.6075 137.249 32.6801 136.993 32.6801C136.732 32.6801 136.534 32.6075 136.398 32.4625C136.268 32.3126 136.202 32.1337 136.202 31.9258Z" fill="#303030"/>
<path id="Vector_13" d="M131.387 40.6437L133.533 34.0074H134.904L132.083 41.855H131.183L131.387 40.6437ZM129.595 34.0074L131.807 40.68L131.96 41.855H131.06L128.217 34.0074H129.595Z" fill="#303030"/>
<path id="Vector_14" d="M125.178 35.2403V41.8549H123.836V34.0073H125.142L125.178 35.2403ZM127.63 33.9638L127.622 35.2113C127.511 35.1871 127.405 35.1726 127.303 35.1678C127.206 35.1581 127.095 35.1533 126.97 35.1533C126.66 35.1533 126.387 35.2016 126.15 35.2983C125.913 35.395 125.712 35.5304 125.548 35.7045C125.384 35.8786 125.253 36.0865 125.156 36.3283C125.064 36.5652 125.004 36.8263 124.975 37.1116L124.598 37.3291C124.598 36.8553 124.644 36.4105 124.736 35.9946C124.832 35.5788 124.98 35.2113 125.178 34.8922C125.376 34.5682 125.628 34.3168 125.932 34.1379C126.242 33.9541 126.609 33.8623 127.035 33.8623C127.132 33.8623 127.243 33.8744 127.368 33.8985C127.494 33.9179 127.581 33.9396 127.63 33.9638Z" fill="#303030"/>
<path id="Vector_15" d="M119.216 42C118.67 42 118.174 41.9081 117.729 41.7244C117.289 41.5358 116.91 41.2723 116.591 40.9338C116.276 40.5954 116.035 40.194 115.865 39.7298C115.696 39.2657 115.612 38.758 115.612 38.2067V37.9021C115.612 37.2639 115.706 36.6957 115.894 36.1977C116.083 35.6948 116.339 35.2693 116.663 34.9212C116.987 34.5731 117.355 34.3095 117.766 34.1306C118.177 33.9517 118.602 33.8623 119.042 33.8623C119.603 33.8623 120.087 33.959 120.493 34.1524C120.904 34.3458 121.24 34.6166 121.501 34.9647C121.762 35.308 121.955 35.7142 122.081 36.1832C122.207 36.6474 122.27 37.1551 122.27 37.7063V38.3083H116.409V37.2131H120.928V37.1116C120.909 36.7634 120.836 36.425 120.71 36.0962C120.589 35.7674 120.396 35.4966 120.13 35.2838C119.864 35.0711 119.502 34.9647 119.042 34.9647C118.738 34.9647 118.457 35.03 118.201 35.1605C117.945 35.2863 117.725 35.4748 117.541 35.7263C117.357 35.9777 117.214 36.2847 117.113 36.6474C117.011 37.01 116.961 37.4283 116.961 37.9021V38.2067C116.961 38.5791 117.011 38.9296 117.113 39.2584C117.219 39.5824 117.372 39.8677 117.57 40.1143C117.773 40.3608 118.017 40.5543 118.302 40.6945C118.593 40.8347 118.921 40.9048 119.289 40.9048C119.763 40.9048 120.164 40.8081 120.493 40.6147C120.822 40.4213 121.109 40.1626 121.356 39.8386L122.168 40.4841C121.999 40.7404 121.784 40.9846 121.523 41.2167C121.262 41.4488 120.94 41.6374 120.558 41.7824C120.181 41.9275 119.734 42 119.216 42Z" fill="#303030"/>
<path id="Vector_16" d="M112.972 39.1859C112.972 38.9393 112.933 38.7217 112.856 38.5331C112.783 38.3397 112.652 38.1657 112.464 38.0109C112.28 37.8562 112.024 37.7087 111.695 37.5685C111.371 37.4283 110.96 37.2856 110.462 37.1406C109.94 36.9859 109.468 36.8142 109.048 36.6256C108.627 36.4322 108.267 36.2122 107.967 35.9656C107.667 35.719 107.438 35.4362 107.278 35.117C107.118 34.7979 107.039 34.4329 107.039 34.0219C107.039 33.6109 107.123 33.2313 107.293 32.8832C107.462 32.535 107.704 32.2328 108.018 31.9765C108.337 31.7154 108.717 31.5124 109.157 31.3673C109.597 31.2222 110.087 31.1497 110.629 31.1497C111.422 31.1497 112.094 31.302 112.645 31.6067C113.201 31.9064 113.624 32.3005 113.914 32.7889C114.205 33.2724 114.35 33.7898 114.35 34.341H112.957C112.957 33.9445 112.872 33.5939 112.703 33.2893C112.534 32.9799 112.278 32.7381 111.934 32.564C111.591 32.3851 111.156 32.2957 110.629 32.2957C110.131 32.2957 109.72 32.3706 109.396 32.5205C109.072 32.6704 108.83 32.8735 108.671 33.1298C108.516 33.386 108.439 33.6786 108.439 34.0074C108.439 34.2298 108.484 34.4329 108.576 34.6166C108.673 34.7955 108.82 34.9623 109.019 35.117C109.222 35.2718 109.478 35.4144 109.788 35.545C110.102 35.6755 110.477 35.8012 110.912 35.9221C111.511 36.0913 112.029 36.2799 112.464 36.4878C112.899 36.6957 113.257 36.9303 113.537 37.1914C113.823 37.4476 114.033 37.7402 114.168 38.069C114.309 38.3929 114.379 38.7604 114.379 39.1714C114.379 39.6017 114.292 39.991 114.118 40.3391C113.943 40.6872 113.694 40.9846 113.37 41.2312C113.047 41.4778 112.657 41.6688 112.203 41.8042C111.753 41.9347 111.25 42 110.694 42C110.206 42 109.725 41.9323 109.251 41.7969C108.782 41.6615 108.354 41.4585 107.967 41.1877C107.585 40.9169 107.278 40.5833 107.046 40.1868C106.819 39.7855 106.705 39.3213 106.705 38.7942H108.098C108.098 39.1569 108.168 39.4688 108.308 39.7299C108.448 39.9861 108.639 40.1989 108.881 40.3681C109.128 40.5374 109.406 40.6631 109.715 40.7453C110.029 40.8226 110.356 40.8613 110.694 40.8613C111.183 40.8613 111.596 40.7936 111.934 40.6582C112.273 40.5228 112.529 40.3294 112.703 40.078C112.882 39.8266 112.972 39.5292 112.972 39.1859Z" fill="#303030"/>
<path id="Vector_17" d="M99.764 35.2403V41.8549H98.4222V34.0073H99.7278L99.764 35.2403ZM102.215 33.9638L102.208 35.2113C102.097 35.1871 101.991 35.1726 101.889 35.1678C101.792 35.1581 101.681 35.1533 101.555 35.1533C101.246 35.1533 100.973 35.2016 100.736 35.2983C100.499 35.395 100.298 35.5304 100.134 35.7045C99.9695 35.8786 99.839 36.0865 99.7423 36.3283C99.6504 36.5652 99.59 36.8263 99.5609 37.1116L99.1838 37.3291C99.1838 36.8553 99.2297 36.4105 99.3216 35.9946C99.4183 35.5788 99.5658 35.2113 99.764 34.8922C99.9623 34.5682 100.214 34.3168 100.518 34.1379C100.828 33.9541 101.195 33.8623 101.621 33.8623C101.717 33.8623 101.829 33.8744 101.954 33.8985C102.08 33.9179 102.167 33.9396 102.215 33.9638Z" fill="#303030"/>
<path id="Vector_18" d="M89.5956 38.0182V37.8514C89.5956 37.2856 89.6778 36.761 89.8422 36.2775C90.0066 35.7891 90.2435 35.366 90.553 35.0082C90.8624 34.6456 91.2371 34.3651 91.6772 34.1669C92.1172 33.9638 92.6104 33.8623 93.1567 33.8623C93.708 33.8623 94.2036 33.9638 94.6436 34.1669C95.0884 34.3651 95.4656 34.6456 95.775 35.0082C96.0893 35.366 96.3287 35.7891 96.4931 36.2775C96.6575 36.761 96.7397 37.2856 96.7397 37.8514V38.0182C96.7397 38.5839 96.6575 39.1085 96.4931 39.592C96.3287 40.0756 96.0893 40.4987 95.775 40.8613C95.4656 41.2191 95.0908 41.4995 94.6508 41.7026C94.2157 41.9009 93.7225 42 93.1712 42C92.62 42 92.1244 41.9009 91.6844 41.7026C91.2444 41.4995 90.8673 41.2191 90.553 40.8613C90.2435 40.4987 90.0066 40.0756 89.8422 39.592C89.6778 39.1085 89.5956 38.5839 89.5956 38.0182ZM90.9374 37.8514V38.0182C90.9374 38.4098 90.9833 38.7797 91.0752 39.1279C91.167 39.4712 91.3048 39.7758 91.4886 40.0417C91.6772 40.3077 91.9117 40.518 92.1921 40.6727C92.4726 40.8226 92.7989 40.8976 93.1712 40.8976C93.5387 40.8976 93.8603 40.8226 94.1359 40.6727C94.4163 40.518 94.6484 40.3077 94.8322 40.0417C95.0159 39.7758 95.1537 39.4712 95.2456 39.1279C95.3423 38.7797 95.3906 38.4098 95.3906 38.0182V37.8514C95.3906 37.4645 95.3423 37.0995 95.2456 36.7562C95.1537 36.408 95.0135 36.101 94.8249 35.8351C94.6412 35.5643 94.4091 35.3515 94.1286 35.1968C93.853 35.0421 93.5291 34.9647 93.1567 34.9647C92.7893 34.9647 92.4653 35.0421 92.1849 35.1968C91.9092 35.3515 91.6772 35.5643 91.4886 35.8351C91.3048 36.101 91.167 36.408 91.0752 36.7562C90.9833 37.0995 90.9374 37.4645 90.9374 37.8514Z" fill="#303030"/>
<path id="Vector_19" d="M87.7969 34.0074V41.855H86.4479V34.0074H87.7969ZM86.3463 31.9258C86.3463 31.7082 86.4116 31.5245 86.5421 31.3746C86.6775 31.2247 86.8758 31.1497 87.1369 31.1497C87.3931 31.1497 87.589 31.2247 87.7244 31.3746C87.8646 31.5245 87.9347 31.7082 87.9347 31.9258C87.9347 32.1337 87.8646 32.3126 87.7244 32.4625C87.589 32.6075 87.3931 32.6801 87.1369 32.6801C86.8758 32.6801 86.6775 32.6075 86.5421 32.4625C86.4116 32.3126 86.3463 32.1337 86.3463 31.9258Z" fill="#303030"/>
<path id="Vector_20" d="M82.6473 35.2403V41.8549H81.3055V34.0073H82.6111L82.6473 35.2403ZM85.0988 33.9638L85.0915 35.2113C84.9803 35.1871 84.874 35.1726 84.7724 35.1678C84.6757 35.1581 84.5645 35.1533 84.4388 35.1533C84.1293 35.1533 83.8561 35.2016 83.6192 35.2983C83.3823 35.395 83.1816 35.5304 83.0172 35.7045C82.8528 35.8786 82.7223 36.0865 82.6256 36.3283C82.5337 36.5652 82.4733 36.8263 82.4442 37.1116L82.0671 37.3291C82.0671 36.8553 82.113 36.4105 82.2049 35.9946C82.3016 35.5788 82.4491 35.2113 82.6473 34.8922C82.8456 34.5682 83.097 34.3168 83.4016 34.1379C83.7111 33.9541 84.0786 33.8623 84.5041 33.8623C84.6008 33.8623 84.712 33.8744 84.8377 33.8985C84.9634 33.9179 85.0504 33.9396 85.0988 33.9638Z" fill="#303030"/>
<path id="Vector_21" d="M76.6855 42C76.1391 42 75.6435 41.9081 75.1986 41.7244C74.7586 41.5358 74.3791 41.2723 74.0599 40.9338C73.7457 40.5954 73.5039 40.194 73.3347 39.7298C73.1654 39.2657 73.0808 38.758 73.0808 38.2067V37.9021C73.0808 37.2639 73.1751 36.6957 73.3637 36.1977C73.5522 35.6948 73.8085 35.2693 74.1325 34.9212C74.4564 34.5731 74.8239 34.3095 75.2349 34.1306C75.6459 33.9517 76.0714 33.8623 76.5114 33.8623C77.0723 33.8623 77.5558 33.959 77.962 34.1524C78.373 34.3458 78.709 34.6166 78.9701 34.9647C79.2312 35.308 79.4247 35.7142 79.5504 36.1832C79.6761 36.6474 79.7389 37.1551 79.7389 37.7063V38.3083H73.8786V37.2131H78.3972V37.1116C78.3778 36.7634 78.3053 36.425 78.1796 36.0962C78.0587 35.7674 77.8653 35.4966 77.5993 35.2838C77.3334 35.0711 76.9708 34.9647 76.5114 34.9647C76.2068 34.9647 75.9264 35.03 75.6701 35.1605C75.4138 35.2863 75.1938 35.4748 75.0101 35.7263C74.8263 35.9777 74.6837 36.2847 74.5822 36.6474C74.4806 37.01 74.4298 37.4283 74.4298 37.9021V38.2067C74.4298 38.5791 74.4806 38.9296 74.5822 39.2584C74.6885 39.5824 74.8408 39.8677 75.0391 40.1143C75.2422 40.3608 75.4863 40.5543 75.7716 40.6945C76.0617 40.8347 76.3905 40.9048 76.758 40.9048C77.2319 40.9048 77.6332 40.8081 77.962 40.6147C78.2908 40.4213 78.5785 40.1626 78.8251 39.8386L79.6374 40.4841C79.4682 40.7404 79.253 40.9846 78.9919 41.2167C78.7308 41.4488 78.4093 41.6374 78.0273 41.7824C77.6501 41.9275 77.2029 42 76.6855 42Z" fill="#303030"/>
<path id="Vector_22" d="M71.855 34.0073V35.0372H67.6121V34.0073H71.855ZM69.0481 32.0998H70.3899V39.9112C70.3899 40.1771 70.431 40.3778 70.5132 40.5132C70.5954 40.6485 70.7018 40.738 70.8323 40.7815C70.9629 40.825 71.1031 40.8468 71.253 40.8468C71.3642 40.8468 71.4803 40.8371 71.6011 40.8178C71.7269 40.7936 71.8211 40.7743 71.884 40.7598L71.8913 41.8549C71.7849 41.8888 71.6447 41.9202 71.4706 41.9492C71.3014 41.9831 71.0959 42 70.8541 42C70.5253 42 70.2231 41.9347 69.9475 41.8042C69.6719 41.6736 69.4519 41.456 69.2875 41.1514C69.1279 40.842 69.0481 40.4261 69.0481 39.9039V32.0998Z" fill="#303030"/>
<path id="Vector_23" d="M61.701 35.6827V41.8549H60.3593V34.0073H61.6285L61.701 35.6827ZM61.3819 37.6338L60.8234 37.612C60.8283 37.0753 60.9081 36.5797 61.0628 36.1252C61.2175 35.6658 61.4351 35.2669 61.7155 34.9284C61.996 34.59 62.3296 34.3289 62.7164 34.1451C63.1081 33.9566 63.5408 33.8623 64.0147 33.8623C64.4015 33.8623 64.7497 33.9155 65.0591 34.0218C65.3686 34.1234 65.6321 34.2878 65.8497 34.515C66.0721 34.7423 66.2413 35.0372 66.3574 35.3999C66.4734 35.7577 66.5314 36.1953 66.5314 36.7127V41.8549H65.1824V36.6981C65.1824 36.2872 65.122 35.9584 65.0011 35.7118C64.8802 35.4603 64.7037 35.279 64.4716 35.1678C64.2395 35.0517 63.9543 34.9937 63.6158 34.9937C63.2822 34.9937 62.9775 35.0638 62.7019 35.2041C62.4312 35.3443 62.1966 35.5377 61.9984 35.7843C61.805 36.0309 61.6527 36.3137 61.5415 36.6329C61.4351 36.9472 61.3819 37.2808 61.3819 37.6338Z" fill="#303030"/>
<path id="Vector_24" d="M58.0165 31.2948V41.855H56.6167V31.2948H58.0165Z" fill="#303030"/>
</g>
</g>
</svg>
